<mxfile host="app.diagrams.net" modified="2020-12-22T14:19:09.111Z" agent="5.0 (Macintosh; Intel Mac OS X 10_15_7) AppleWebKit/537.36 (KHTML, like Gecko) Chrome/87.0.4280.88 Safari/537.36" etag="HyL5moS9v8XIfmWIFnBH" version="14.1.1" type="github">
  <diagram name="Page-1" id="b5b7bab2-c9e2-2cf4-8b2a-24fd1a2a6d21">
    <mxGraphModel dx="1715" dy="449" grid="1" gridSize="10" guides="1" tooltips="1" connect="1" arrows="1" fold="1" page="1" pageScale="1" pageWidth="827" pageHeight="1169" background="#ffffff" math="0" shadow="0">
      <root>
        <mxCell id="0" />
        <mxCell id="1" parent="0" />
        <mxCell id="lKpt_w9u_HPfPlhHQYKm-41" value="&lt;pre&gt;&lt;code&gt;&lt;b&gt;TSCPP MOBILE MODULE&lt;/b&gt;&lt;/code&gt;&lt;/pre&gt;" style="shape=umlFrame;whiteSpace=wrap;html=1;width=170;height=35;" vertex="1" parent="1">
          <mxGeometry y="305" width="680" height="405" as="geometry" />
        </mxCell>
        <mxCell id="lKpt_w9u_HPfPlhHQYKm-4" value="Domain" style="shape=umlFrame;whiteSpace=wrap;html=1;width=90;height=30;" vertex="1" parent="1">
          <mxGeometry x="235" y="360" width="290" height="340" as="geometry" />
        </mxCell>
        <mxCell id="lKpt_w9u_HPfPlhHQYKm-19" value="Application" style="shape=umlFrame;whiteSpace=wrap;html=1;width=90;height=30;" vertex="1" parent="1">
          <mxGeometry x="20" y="360" width="160" height="340" as="geometry" />
        </mxCell>
        <mxCell id="lKpt_w9u_HPfPlhHQYKm-6" value="DoorLock&lt;br&gt;Service" style="shape=umlBoundary;whiteSpace=wrap;html=1;" vertex="1" parent="1">
          <mxGeometry x="260" y="410" width="100" height="80" as="geometry" />
        </mxCell>
        <mxCell id="lKpt_w9u_HPfPlhHQYKm-5" value="DoorLock" style="ellipse;shape=umlEntity;whiteSpace=wrap;html=1;" vertex="1" parent="1">
          <mxGeometry x="420" y="485" width="80" height="80" as="geometry" />
        </mxCell>
        <mxCell id="lKpt_w9u_HPfPlhHQYKm-9" value="DoorLock&lt;br&gt;Repository" style="shape=umlBoundary;whiteSpace=wrap;html=1;" vertex="1" parent="1">
          <mxGeometry x="260" y="545" width="100" height="80" as="geometry" />
        </mxCell>
        <mxCell id="lKpt_w9u_HPfPlhHQYKm-16" value="1" style="endArrow=open;html=1;endSize=12;startArrow=diamondThin;startSize=14;startFill=0;edgeStyle=orthogonalEdgeStyle;align=left;verticalAlign=bottom;exitX=0.99;exitY=0.52;exitDx=0;exitDy=0;exitPerimeter=0;entryX=0.012;entryY=0.574;entryDx=0;entryDy=0;entryPerimeter=0;" edge="1" parent="1" source="lKpt_w9u_HPfPlhHQYKm-9" target="lKpt_w9u_HPfPlhHQYKm-5">
          <mxGeometry x="-1" y="3" relative="1" as="geometry">
            <mxPoint x="380" y="584.76" as="sourcePoint" />
            <mxPoint x="540" y="584.76" as="targetPoint" />
            <Array as="points">
              <mxPoint x="380" y="587" />
              <mxPoint x="380" y="531" />
            </Array>
          </mxGeometry>
        </mxCell>
        <mxCell id="lKpt_w9u_HPfPlhHQYKm-17" value="1 ... n" style="edgeLabel;html=1;align=center;verticalAlign=middle;resizable=0;points=[];" vertex="1" connectable="0" parent="lKpt_w9u_HPfPlhHQYKm-16">
          <mxGeometry x="0.7328" relative="1" as="geometry">
            <mxPoint x="-15" y="-8" as="offset" />
          </mxGeometry>
        </mxCell>
        <mxCell id="lKpt_w9u_HPfPlhHQYKm-18" value="1" style="endArrow=open;endSize=12;html=1;exitX=1;exitY=0.525;exitDx=0;exitDy=0;exitPerimeter=0;entryX=0.884;entryY=0.155;entryDx=0;entryDy=0;entryPerimeter=0;startArrow=diamondThin;startFill=1;" edge="1" parent="1" source="lKpt_w9u_HPfPlhHQYKm-6" target="lKpt_w9u_HPfPlhHQYKm-9">
          <mxGeometry x="-0.8089" y="6" width="160" relative="1" as="geometry">
            <mxPoint x="414" y="470" as="sourcePoint" />
            <mxPoint x="574" y="470" as="targetPoint" />
            <Array as="points">
              <mxPoint x="380" y="500" />
            </Array>
            <mxPoint as="offset" />
          </mxGeometry>
        </mxCell>
        <mxCell id="lKpt_w9u_HPfPlhHQYKm-40" value="1" style="edgeLabel;html=1;align=center;verticalAlign=middle;resizable=0;points=[];" vertex="1" connectable="0" parent="lKpt_w9u_HPfPlhHQYKm-18">
          <mxGeometry x="0.5" y="-1" relative="1" as="geometry">
            <mxPoint x="-11.6" as="offset" />
          </mxGeometry>
        </mxCell>
        <mxCell id="lKpt_w9u_HPfPlhHQYKm-20" value="DoorLock&lt;br&gt;ServiceImpl" style="shape=umlBoundary;whiteSpace=wrap;html=1;" vertex="1" parent="1">
          <mxGeometry x="70" y="550" width="100" height="80" as="geometry" />
        </mxCell>
        <mxCell id="lKpt_w9u_HPfPlhHQYKm-22" value="Infrastracture" style="shape=umlFrame;whiteSpace=wrap;html=1;width=90;height=30;" vertex="1" parent="1">
          <mxGeometry x="535" y="360" width="130" height="340" as="geometry" />
        </mxCell>
        <mxCell id="lKpt_w9u_HPfPlhHQYKm-23" value="DoorLock&lt;br&gt;RepositoryImpl" style="shape=umlBoundary;whiteSpace=wrap;html=1;" vertex="1" parent="1">
          <mxGeometry x="540" y="545" width="100" height="80" as="geometry" />
        </mxCell>
        <mxCell id="lKpt_w9u_HPfPlhHQYKm-24" value="Extends" style="endArrow=block;endSize=16;endFill=0;html=1;exitX=0.558;exitY=0.994;exitDx=0;exitDy=0;exitPerimeter=0;entryX=0.55;entryY=1.004;entryDx=0;entryDy=0;entryPerimeter=0;" edge="1" parent="1" source="lKpt_w9u_HPfPlhHQYKm-23" target="lKpt_w9u_HPfPlhHQYKm-9">
          <mxGeometry x="-0.0182" y="10" width="160" relative="1" as="geometry">
            <mxPoint x="510" y="710" as="sourcePoint" />
            <mxPoint x="670" y="710" as="targetPoint" />
            <Array as="points">
              <mxPoint x="460" y="680" />
            </Array>
            <mxPoint x="6" y="2" as="offset" />
          </mxGeometry>
        </mxCell>
        <mxCell id="lKpt_w9u_HPfPlhHQYKm-25" value="Extends" style="endArrow=block;endSize=16;endFill=0;html=1;exitX=1;exitY=0.5;exitDx=0;exitDy=0;exitPerimeter=0;entryX=0.242;entryY=0.796;entryDx=0;entryDy=0;entryPerimeter=0;" edge="1" parent="1" source="lKpt_w9u_HPfPlhHQYKm-20" target="lKpt_w9u_HPfPlhHQYKm-6">
          <mxGeometry x="-0.5158" y="-22" width="160" relative="1" as="geometry">
            <mxPoint x="170" y="550" as="sourcePoint" />
            <mxPoint x="250" y="491" as="targetPoint" />
            <Array as="points" />
            <mxPoint as="offset" />
          </mxGeometry>
        </mxCell>
        <mxCell id="lKpt_w9u_HPfPlhHQYKm-28" value="DoorLock&#xa;Request" style="shape=module;align=left;spacingLeft=20;align=center;verticalAlign=top;" vertex="1" parent="1">
          <mxGeometry x="550" y="415" width="100" height="50" as="geometry" />
        </mxCell>
        <mxCell id="lKpt_w9u_HPfPlhHQYKm-30" value="&lt;pre&gt;&lt;code&gt;UnlockAllDoors&lt;/code&gt;&lt;/pre&gt;&lt;pre&gt;&lt;code&gt;UseCase&lt;/code&gt;&lt;/pre&gt;" style="ellipse;whiteSpace=wrap;html=1;" vertex="1" parent="1">
          <mxGeometry x="30" y="415" width="140" height="70" as="geometry" />
        </mxCell>
        <mxCell id="lKpt_w9u_HPfPlhHQYKm-37" value="1" style="endArrow=open;html=1;endSize=12;startArrow=diamondThin;startSize=14;startFill=1;edgeStyle=orthogonalEdgeStyle;align=left;verticalAlign=bottom;strokeColor=#000000;exitX=1;exitY=0.5;exitDx=0;exitDy=0;" edge="1" parent="1" source="lKpt_w9u_HPfPlhHQYKm-30">
          <mxGeometry x="-1" y="3" relative="1" as="geometry">
            <mxPoint x="210" y="330" as="sourcePoint" />
            <mxPoint x="260" y="450" as="targetPoint" />
          </mxGeometry>
        </mxCell>
        <mxCell id="lKpt_w9u_HPfPlhHQYKm-38" value="1" style="edgeLabel;html=1;align=center;verticalAlign=middle;resizable=0;points=[];" vertex="1" connectable="0" parent="lKpt_w9u_HPfPlhHQYKm-37">
          <mxGeometry x="0.7037" y="-5" relative="1" as="geometry">
            <mxPoint as="offset" />
          </mxGeometry>
        </mxCell>
        <mxCell id="lKpt_w9u_HPfPlhHQYKm-39" value="Use" style="endArrow=open;endSize=12;dashed=1;html=1;strokeColor=#000000;entryX=0.592;entryY=0.99;entryDx=0;entryDy=0;entryPerimeter=0;exitX=0.7;exitY=0.015;exitDx=0;exitDy=0;exitPerimeter=0;" edge="1" parent="1" source="lKpt_w9u_HPfPlhHQYKm-23" target="lKpt_w9u_HPfPlhHQYKm-28">
          <mxGeometry x="0.1285" y="-10" width="160" relative="1" as="geometry">
            <mxPoint x="690" y="580" as="sourcePoint" />
            <mxPoint x="850" y="580" as="targetPoint" />
            <mxPoint as="offset" />
          </mxGeometry>
        </mxCell>
        <mxCell id="lKpt_w9u_HPfPlhHQYKm-42" value="&lt;pre&gt;&lt;code&gt;&lt;b&gt;TSCPP MOBILE&lt;/b&gt;&lt;/code&gt;&lt;/pre&gt;" style="shape=umlFrame;whiteSpace=wrap;html=1;width=110;height=35;" vertex="1" parent="1">
          <mxGeometry x="-250" y="305" width="230" height="405" as="geometry" />
        </mxCell>
        <mxCell id="lKpt_w9u_HPfPlhHQYKm-46" value="&lt;p style=&quot;margin: 0px ; margin-top: 4px ; text-align: center&quot;&gt;&lt;b&gt;TopViewController&lt;/b&gt;&lt;/p&gt;&lt;hr size=&quot;1&quot;&gt;&lt;div style=&quot;height: 2px&quot;&gt;&amp;nbsp;unlockAllDoorsUseCase&lt;/div&gt;" style="verticalAlign=top;align=left;overflow=fill;fontSize=12;fontFamily=Helvetica;html=1;fillColor=#FFFFFF;" vertex="1" parent="1">
          <mxGeometry x="-198" y="570" width="140" height="60" as="geometry" />
        </mxCell>
        <mxCell id="lKpt_w9u_HPfPlhHQYKm-47" value="&lt;p style=&quot;margin: 0px ; margin-top: 4px ; text-align: center&quot;&gt;&lt;b&gt;AppDelegate&lt;/b&gt;&lt;/p&gt;&lt;hr size=&quot;1&quot;&gt;&lt;div style=&quot;height: 2px&quot;&gt;&lt;br&gt;&lt;/div&gt;" style="verticalAlign=top;align=left;overflow=fill;fontSize=12;fontFamily=Helvetica;html=1;fillColor=#FFFFFF;" vertex="1" parent="1">
          <mxGeometry x="-198" y="420" width="140" height="60" as="geometry" />
        </mxCell>
        <mxCell id="lKpt_w9u_HPfPlhHQYKm-48" value="1" style="endArrow=open;html=1;endSize=12;startArrow=diamondThin;startSize=14;startFill=1;edgeStyle=orthogonalEdgeStyle;align=left;verticalAlign=bottom;strokeColor=#000000;exitX=0.5;exitY=1;exitDx=0;exitDy=0;entryX=0.5;entryY=0;entryDx=0;entryDy=0;" edge="1" parent="1" source="lKpt_w9u_HPfPlhHQYKm-47" target="lKpt_w9u_HPfPlhHQYKm-46">
          <mxGeometry x="-0.5556" y="5" relative="1" as="geometry">
            <mxPoint x="-133" y="530" as="sourcePoint" />
            <mxPoint x="27" y="530" as="targetPoint" />
            <mxPoint as="offset" />
          </mxGeometry>
        </mxCell>
        <mxCell id="lKpt_w9u_HPfPlhHQYKm-49" value="1" style="edgeLabel;html=1;align=center;verticalAlign=middle;resizable=0;points=[];" vertex="1" connectable="0" parent="lKpt_w9u_HPfPlhHQYKm-48">
          <mxGeometry x="0.6" y="1" relative="1" as="geometry">
            <mxPoint x="-8" as="offset" />
          </mxGeometry>
        </mxCell>
        <mxCell id="lKpt_w9u_HPfPlhHQYKm-51" value="1" style="endArrow=open;html=1;endSize=12;startArrow=diamondThin;startSize=14;startFill=1;edgeStyle=orthogonalEdgeStyle;align=left;verticalAlign=bottom;strokeColor=#000000;entryX=0;entryY=1;entryDx=0;entryDy=0;" edge="1" parent="1" source="lKpt_w9u_HPfPlhHQYKm-46" target="lKpt_w9u_HPfPlhHQYKm-30">
          <mxGeometry x="-1" y="3" relative="1" as="geometry">
            <mxPoint x="-60" y="524.58" as="sourcePoint" />
            <mxPoint x="100" y="524.58" as="targetPoint" />
          </mxGeometry>
        </mxCell>
        <mxCell id="lKpt_w9u_HPfPlhHQYKm-53" value="1" style="edgeLabel;html=1;align=center;verticalAlign=middle;resizable=0;points=[];" vertex="1" connectable="0" parent="lKpt_w9u_HPfPlhHQYKm-51">
          <mxGeometry x="0.8524" y="2" relative="1" as="geometry">
            <mxPoint x="-8.5" y="8.17" as="offset" />
          </mxGeometry>
        </mxCell>
        <mxCell id="lKpt_w9u_HPfPlhHQYKm-52" value="User Interface" style="shape=umlFrame;whiteSpace=wrap;html=1;width=90;height=30;" vertex="1" parent="1">
          <mxGeometry x="-240" y="360" width="210" height="340" as="geometry" />
        </mxCell>
        <mxCell id="lKpt_w9u_HPfPlhHQYKm-54" value="&lt;pre&gt;&lt;code&gt;&lt;b&gt;TSCPP MOBILE NOTIFICATION&lt;/b&gt;&lt;/code&gt;&lt;/pre&gt;" style="shape=umlFrame;whiteSpace=wrap;html=1;width=190;height=30;" vertex="1" parent="1">
          <mxGeometry x="1" y="130" width="190" height="30" as="geometry" />
        </mxCell>
        <mxCell id="lKpt_w9u_HPfPlhHQYKm-55" value="&lt;pre&gt;&lt;code&gt;&lt;b&gt;TSCPP MOBILE MODULE&lt;/b&gt;&lt;/code&gt;&lt;/pre&gt;" style="shape=umlFrame;whiteSpace=wrap;html=1;width=170;height=35;" vertex="1" parent="1">
          <mxGeometry x="5" y="50" width="170" height="30" as="geometry" />
        </mxCell>
        <mxCell id="lKpt_w9u_HPfPlhHQYKm-56" value="&lt;pre&gt;&lt;code&gt;&lt;b&gt;TSCPP MOBILE Tests&lt;/b&gt;&lt;/code&gt;&lt;/pre&gt;" style="shape=umlFrame;whiteSpace=wrap;html=1;width=170;height=35;" vertex="1" parent="1">
          <mxGeometry x="-202" y="130" width="170" height="30" as="geometry" />
        </mxCell>
        <mxCell id="lKpt_w9u_HPfPlhHQYKm-57" value="&lt;pre&gt;&lt;code&gt;&lt;b&gt;TSCPP MOBILE&lt;/b&gt;&lt;/code&gt;&lt;/pre&gt;" style="shape=umlFrame;whiteSpace=wrap;html=1;width=170;height=35;" vertex="1" parent="1">
          <mxGeometry x="-200" y="50" width="170" height="30" as="geometry" />
        </mxCell>
        <mxCell id="lKpt_w9u_HPfPlhHQYKm-58" value="" style="endArrow=open;endFill=1;endSize=12;html=1;strokeColor=#000000;exitX=0.542;exitY=0.039;exitDx=0;exitDy=0;exitPerimeter=0;entryX=0.532;entryY=1.094;entryDx=0;entryDy=0;entryPerimeter=0;" edge="1" parent="1" source="lKpt_w9u_HPfPlhHQYKm-56" target="lKpt_w9u_HPfPlhHQYKm-57">
          <mxGeometry width="160" relative="1" as="geometry">
            <mxPoint x="-120" y="220" as="sourcePoint" />
            <mxPoint x="40" y="220" as="targetPoint" />
          </mxGeometry>
        </mxCell>
        <mxCell id="lKpt_w9u_HPfPlhHQYKm-59" value="" style="endArrow=open;endFill=1;endSize=12;html=1;strokeColor=#000000;exitX=1.013;exitY=0.511;exitDx=0;exitDy=0;exitPerimeter=0;" edge="1" parent="1" source="lKpt_w9u_HPfPlhHQYKm-57">
          <mxGeometry width="160" relative="1" as="geometry">
            <mxPoint x="40.00000000000034" y="208.34999999999997" as="sourcePoint" />
            <mxPoint y="65" as="targetPoint" />
          </mxGeometry>
        </mxCell>
        <mxCell id="lKpt_w9u_HPfPlhHQYKm-60" value="" style="endArrow=open;endFill=1;endSize=12;html=1;strokeColor=#000000;exitX=0.489;exitY=-0.128;exitDx=0;exitDy=0;exitPerimeter=0;entryX=0.518;entryY=1.011;entryDx=0;entryDy=0;entryPerimeter=0;" edge="1" parent="1" source="lKpt_w9u_HPfPlhHQYKm-54" target="lKpt_w9u_HPfPlhHQYKm-55">
          <mxGeometry width="160" relative="1" as="geometry">
            <mxPoint x="-17.789999999999964" y="75.33000000000004" as="sourcePoint" />
            <mxPoint x="10" y="75" as="targetPoint" />
          </mxGeometry>
        </mxCell>
        <mxCell id="lKpt_w9u_HPfPlhHQYKm-71" value="" style="edgeStyle=orthogonalEdgeStyle;rounded=0;orthogonalLoop=1;jettySize=auto;html=1;" edge="1" parent="1">
          <mxGeometry relative="1" as="geometry">
            <mxPoint x="15.5" y="1055.5" as="sourcePoint" />
            <mxPoint x="15.5" y="1128.5714285714287" as="targetPoint" />
          </mxGeometry>
        </mxCell>
        <mxCell id="lKpt_w9u_HPfPlhHQYKm-75" value="" style="edgeStyle=orthogonalEdgeStyle;rounded=0;orthogonalLoop=1;jettySize=auto;html=1;" edge="1" parent="1" source="lKpt_w9u_HPfPlhHQYKm-61">
          <mxGeometry relative="1" as="geometry">
            <mxPoint x="94.5" y="1055" as="targetPoint" />
          </mxGeometry>
        </mxCell>
        <mxCell id="lKpt_w9u_HPfPlhHQYKm-61" value="" style="shape=umlLifeline;participant=umlControl;perimeter=lifelinePerimeter;whiteSpace=wrap;html=1;container=1;collapsible=0;recursiveResize=0;verticalAlign=top;spacingTop=36;outlineConnect=0;rotation=-90;" vertex="1" parent="1">
          <mxGeometry x="-47" y="1010" width="37" height="90" as="geometry" />
        </mxCell>
        <mxCell id="lKpt_w9u_HPfPlhHQYKm-76" value="Promise&amp;lt;T&amp;gt;" style="html=1;" vertex="1" parent="1">
          <mxGeometry x="-80" y="990" width="70" height="30" as="geometry" />
        </mxCell>
        <mxCell id="lKpt_w9u_HPfPlhHQYKm-77" value="" style="ellipse;html=1;shape=endState;fillColor=#000000;strokeColor=#ff0000;" vertex="1" parent="1">
          <mxGeometry x="95.5" y="1040" width="30" height="30" as="geometry" />
        </mxCell>
        <mxCell id="lKpt_w9u_HPfPlhHQYKm-78" value="" style="shape=umlDestroy;whiteSpace=wrap;html=1;strokeWidth=3;" vertex="1" parent="1">
          <mxGeometry x="0.5" y="1130" width="30" height="30" as="geometry" />
        </mxCell>
        <mxCell id="lKpt_w9u_HPfPlhHQYKm-81" value="resolve" style="text;html=1;strokeColor=none;fillColor=none;align=center;verticalAlign=middle;whiteSpace=wrap;rounded=0;" vertex="1" parent="1">
          <mxGeometry x="40" y="1030" width="40" height="20" as="geometry" />
        </mxCell>
        <mxCell id="lKpt_w9u_HPfPlhHQYKm-82" value="reject" style="text;html=1;strokeColor=none;fillColor=none;align=center;verticalAlign=middle;whiteSpace=wrap;rounded=0;" vertex="1" parent="1">
          <mxGeometry x="20" y="1100" width="40" height="20" as="geometry" />
        </mxCell>
        <mxCell id="lKpt_w9u_HPfPlhHQYKm-83" value="" style="html=1;points=[];perimeter=orthogonalPerimeter;" vertex="1" parent="1">
          <mxGeometry x="125.5" y="1025" width="10" height="60" as="geometry" />
        </mxCell>
        <mxCell id="lKpt_w9u_HPfPlhHQYKm-84" value="then" style="html=1;verticalAlign=bottom;endArrow=block;entryX=1;entryY=0;" edge="1" target="lKpt_w9u_HPfPlhHQYKm-83" parent="1">
          <mxGeometry relative="1" as="geometry">
            <mxPoint x="195.5" y="1025" as="sourcePoint" />
          </mxGeometry>
        </mxCell>
        <mxCell id="lKpt_w9u_HPfPlhHQYKm-85" value="T" style="html=1;verticalAlign=bottom;endArrow=open;dashed=1;endSize=8;exitX=1;exitY=0.95;" edge="1" source="lKpt_w9u_HPfPlhHQYKm-83" parent="1">
          <mxGeometry relative="1" as="geometry">
            <mxPoint x="195.5" y="1082" as="targetPoint" />
          </mxGeometry>
        </mxCell>
        <mxCell id="lKpt_w9u_HPfPlhHQYKm-86" value="" style="html=1;points=[];perimeter=orthogonalPerimeter;" vertex="1" parent="1">
          <mxGeometry x="40" y="1130" width="10" height="60" as="geometry" />
        </mxCell>
        <mxCell id="lKpt_w9u_HPfPlhHQYKm-87" value="catch" style="html=1;verticalAlign=bottom;endArrow=block;entryX=1;entryY=0;" edge="1" parent="1" target="lKpt_w9u_HPfPlhHQYKm-86">
          <mxGeometry relative="1" as="geometry">
            <mxPoint x="110" y="1130" as="sourcePoint" />
          </mxGeometry>
        </mxCell>
        <mxCell id="lKpt_w9u_HPfPlhHQYKm-88" value="&lt;br&gt;Error" style="html=1;verticalAlign=bottom;endArrow=open;dashed=1;endSize=8;exitX=1;exitY=0.95;" edge="1" parent="1" source="lKpt_w9u_HPfPlhHQYKm-86">
          <mxGeometry relative="1" as="geometry">
            <mxPoint x="110" y="1187" as="targetPoint" />
          </mxGeometry>
        </mxCell>
        <mxCell id="lKpt_w9u_HPfPlhHQYKm-90" value="use&lt;br&gt;&lt;br&gt;promise&lt;br&gt;&amp;nbsp; .then { (result: T) in&lt;br&gt;&amp;nbsp; &amp;nbsp; print(result)&lt;br&gt;&amp;nbsp; }" style="verticalAlign=top;align=left;spacingTop=8;spacingLeft=2;spacingRight=12;shape=cube;size=10;direction=south;fontStyle=4;html=1;" vertex="1" parent="1">
          <mxGeometry x="200" y="990" width="130" height="100" as="geometry" />
        </mxCell>
        <mxCell id="lKpt_w9u_HPfPlhHQYKm-92" value="use&lt;br&gt;&lt;br&gt;promise&lt;br&gt;&amp;nbsp; .catch { (error: Error) in&lt;br&gt;&amp;nbsp; &amp;nbsp; print(error)&lt;br&gt;&amp;nbsp; }" style="verticalAlign=top;align=left;spacingTop=8;spacingLeft=2;spacingRight=12;shape=cube;size=10;direction=south;fontStyle=4;html=1;" vertex="1" parent="1">
          <mxGeometry x="110" y="1100" width="150" height="100" as="geometry" />
        </mxCell>
        <mxCell id="lKpt_w9u_HPfPlhHQYKm-93" value="" style="shape=umlLifeline;participant=umlControl;perimeter=lifelinePerimeter;whiteSpace=wrap;html=1;container=1;collapsible=0;recursiveResize=0;verticalAlign=top;spacingTop=36;outlineConnect=0;rotation=-90;" vertex="1" parent="1">
          <mxGeometry x="350" y="995" width="37" height="90" as="geometry" />
        </mxCell>
      </root>
    </mxGraphModel>
  </diagram>
</mxfile>
